<?xml version="1.0" encoding="utf-8"?>
<!-- Generator: Adobe Illustrator 22.1.0, SVG Export Plug-In . SVG Version: 6.00 Build 0)  -->
<svg version="1.1" id="katman_1" xmlns="http://www.w3.org/2000/svg" xmlns:xlink="http://www.w3.org/1999/xlink" x="0px" y="0px"
	 viewBox="0 0 412 404" enable-background="new 0 0 412 404" xml:space="preserve">
<g>
	<defs>
		<path id="SVGID_1_" d="M295.4,324.9V185.7h-25.6c-3.2,21.2-18.3,27.4-39.9,26.8v24.7h34v87.7H295.4z M216.2,281.2
			c0-14.7-7.7-26.2-20.4-31.1c9.7-4.9,15.4-14.8,15.4-27.6c0-24.7-24.1-39.5-47.4-39.5c-27.1,0-47.6,17-48.8,50.8h30.2
			c-0.3-14,5-24.2,18.8-24.2c8.2,0,17.1,5,17.1,16c0,13.8-15,15.8-28.8,14.6v23.5c19.6,0,31.3,1.2,31.3,18.1
			c0,13.3-10.1,19.3-20,19.3c-15.1,0-21.3-11.3-21.8-26.7h-30c-0.6,34.7,20.5,53.1,52.2,53.1C192.3,327.4,216.2,310.1,216.2,281.2z
			 M372,363.9H40V141.4h332V363.9z M369.4,44.9v18.6c0,22.1-18,40.1-40.1,40.1c-22.1,0-40.1-18-40.1-40.1V44.9H123.9v18.5
			c0,22.1-18,40.1-40.1,40.1c-22.1,0-40.1-18-40.1-40.1V44.9H0v359h412v-359H369.4z M101.9,18.3c0-10-8.1-18.2-18.2-18.2
			c-10,0-18.2,8.1-18.2,18.2V64c0,10,8.1,18.2,18.2,18.2c10,0,18.2-8.1,18.2-18.2V18.3z M347.4,64.1c0,10-8.1,18.2-18.2,18.2
			S311,74.2,311,64.1V18.4c0-10,8.1-18.2,18.2-18.2s18.2,8.1,18.2,18.2V64.1z"/>
	</defs>
	<clipPath id="SVGID_2_">
		<use xlink:href="#SVGID_1_"  overflow="visible"/>
	</clipPath>
	<rect x="-5" y="-4.9" clip-path="url(#SVGID_2_)" width="422" height="413.7"/>
</g>
</svg>
