<?xml version="1.0" encoding="utf-8"?>
<!-- Generator: Adobe Illustrator 22.1.0, SVG Export Plug-In . SVG Version: 6.00 Build 0)  -->
<svg version="1.1" id="katman_1" xmlns="http://www.w3.org/2000/svg" xmlns:xlink="http://www.w3.org/1999/xlink" x="0px" y="0px"
	 viewBox="0 0 412 272" enable-background="new 0 0 412 272" xml:space="preserve">
<g>
	<defs>
		<path id="SVGID_1_" d="M319.2,231.5H93.8c-29.8,0-53.2-23.4-53.2-52.2c0-34.1,27.7-60.1,62.2-53.8c-11.5-39.6,44.1-61.9,64.6-32.3
			c5.2-14.6,25.8-52.7,76.1-52.7c38,0,77.4,26.1,78.7,85c25.4,0.1,49.2,18.4,49.2,53.8C371.4,208.1,348,231.5,319.2,231.5z
			 M359.3,96.3c-10.4-55-58.7-95.8-115.8-95.8c-35.1,0-67.6,15.3-89.9,41.6c-37.1-9.9-76.1,11.8-86.9,48.8
			c-38.6,11.3-66.2,47.1-66.2,88.5c0,50.9,41.4,92.2,93.2,92.2h225.4c50.9,0,92.2-41.4,92.2-92.2
			C411.4,143.4,390.9,111.5,359.3,96.3z"/>
	</defs>
	<clipPath id="SVGID_2_">
		<use xlink:href="#SVGID_1_"  overflow="visible"/>
	</clipPath>
	<rect x="-4.4" y="-4.5" clip-path="url(#SVGID_2_)" width="420.8" height="281"/>
</g>
</svg>
