<?xml version="1.0" encoding="utf-8"?>
<!-- Generator: Adobe Illustrator 22.1.0, SVG Export Plug-In . SVG Version: 6.00 Build 0)  -->
<svg version="1.1" id="katman_1" xmlns="http://www.w3.org/2000/svg" xmlns:xlink="http://www.w3.org/1999/xlink" x="0px" y="0px"
	 viewBox="0 0 282 382" enable-background="new 0 0 282 382" xml:space="preserve">
<g>
	<defs>
		<path id="SVGID_1_" d="M265.4,232.5H16.6v7.5c0,69.3,55.7,125.4,124.4,125.4S265.4,309.2,265.4,240V232.5z M282,232.5H0v8.4
			C0,318.8,63.1,382,141,382s141-63.2,141-141.1V232.5z M174.2,99.7c13.7,0,24.9,11.1,24.9,25v82.9c0,13.8-11,25-24.9,25
			c-13.7,0-24.9-11.1-24.9-25v-41.3v-41.6C149.3,110.8,160.3,99.7,174.2,99.7z M132.7,207.6c-7-5.2-15.6-8.3-25-8.3H41.6
			c-9.4,0-18,3.1-25,7.8V41c0-13.8,11-24.9,24.9-24.9c13.7,0,24.9,11,24.9,24.9v158.3h8.3h8.3v-74.7c0-13.8,11-25,24.9-25
			c13.7,0,24.9,11.1,24.9,25V207.6z M149.3,240.8C149.3,240.8,149.3,240.8,149.3,240.8c0,23-18.6,41.6-41.6,41.6h-8.2v-16.6h8.3
			c13.8,0,24.9-11.2,24.9-24.9c0-13.9-11.2-24.9-24.9-24.9H41.5c-13.8,0-24.9,11.2-24.9,16.6H8.3H0V41.6C0,18.6,18.4,0,41.5,0
			c22.9,0,41.5,18.6,41.5,41.6v49.7c6.9-5.2,15.5-8.2,24.9-8.2c13.5,0,25.6,6.5,33.1,16.6c7.5-10.1,19.6-16.6,33.2-16.6
			c9.3,0,18,3.1,24.9,8.3V58.1c0-22.9,18.4-41.5,41.5-41.5c22.9,0,41.5,18.7,41.5,41.5v174.4h-16.6v-16.6v16.6V58.1
			c0-13.7-11.1-24.9-24.9-24.9c-13.8,0-24.9,11.1-24.9,24.9v103.8v45.7c0,22.9-18.4,41.5-41.5,41.5
			C164.8,249.1,156.2,246,149.3,240.8z"/>
	</defs>
	<clipPath id="SVGID_2_">
		<use xlink:href="#SVGID_1_"  overflow="visible"/>
	</clipPath>
	<g clip-path="url(#SVGID_2_)">
		<defs>
			<rect id="SVGID_3_" x="-516" y="-862" width="1440" height="1545"/>
		</defs>
		<clipPath id="SVGID_4_">
			<use xlink:href="#SVGID_3_"  overflow="visible"/>
		</clipPath>
		<rect x="-5" y="-5" clip-path="url(#SVGID_4_)" width="292" height="392"/>
	</g>
</g>
</svg>
