<svg xmlns="http://www.w3.org/2000/svg" xmlns:xlink="http://www.w3.org/1999/xlink" viewBox="0 0 348 412"><defs><path id="a" d="M224.2 362.3c0 27.4-22.2 49.7-49.7 49.7-27.4 0-49.7-22.2-49.7-49.7h99.4zm-165.9-65c37.4-46.2 34.4-119.3 53.3-166.5C122 105 140.3 86.6 174 86.6c33.3 0 51.9 18.1 62.3 44.1 18.9 47.2 15.9 120.3 53.3 166.5H58.3zM174 21.6c8.1 0 14.8 6.6 14.8 14.8 0 8.1-6.6 14.8-14.8 14.8-8.1 0-14.8-6.6-14.8-14.8s6.7-14.8 14.8-14.8zm54.5 46.1c-11.2-6.4-18.1-18.4-18.1-31.3v-.1c0-20-16.3-36.3-36.4-36.3-20.1 0-36.4 16.3-36.4 36.4v.1c0 12.9-6.9 24.8-18.1 31.3C38.4 114.3 85 268.8.3 296.1v36.1h347.4v-36.1C263 268.8 309.6 114.3 228.5 67.7z"/></defs><clipPath id="b"><use xlink:href="#a" overflow="visible"/></clipPath><path clip-path="url(#b)" d="M-4.7-5h357.4v422H-4.7z"/></svg>