<svg xmlns="http://www.w3.org/2000/svg" xmlns:xlink="http://www.w3.org/1999/xlink" viewBox="0 0 412 404"><defs><path id="a" d="M295.4 324.9V185.7h-25.6c-3.2 21.2-18.3 27.4-39.9 26.8v24.7h34v87.7h31.5zm-79.2-43.7c0-14.7-7.7-26.2-20.4-31.1 9.7-4.9 15.4-14.8 15.4-27.6 0-24.7-24.1-39.5-47.4-39.5-27.1 0-47.6 17-48.8 50.8h30.2c-.3-14 5-24.2 18.8-24.2 8.2 0 17.1 5 17.1 16 0 13.8-15 15.8-28.8 14.6v23.5c19.6 0 31.3 1.2 31.3 18.1 0 13.3-10.1 19.3-20 19.3-15.1 0-21.3-11.3-21.8-26.7h-30c-.6 34.7 20.5 53.1 52.2 53.1 28.3-.1 52.2-17.4 52.2-46.3zM372 363.9H40V141.4h332v222.5zm-2.6-319v18.6c0 22.1-18 40.1-40.1 40.1s-40.1-18-40.1-40.1V44.9H123.9v18.5c0 22.1-18 40.1-40.1 40.1s-40.1-18-40.1-40.1V44.9H0v359h412v-359h-42.6zM101.9 18.3c0-10-8.1-18.2-18.2-18.2-10 0-18.2 8.1-18.2 18.2V64c0 10 8.1 18.2 18.2 18.2 10 0 18.2-8.1 18.2-18.2V18.3zm245.5 45.8c0 10-8.1 18.2-18.2 18.2S311 74.2 311 64.1V18.4c0-10 8.1-18.2 18.2-18.2s18.2 8.1 18.2 18.2v45.7z"/></defs><clipPath id="b"><use xlink:href="#a" overflow="visible"/></clipPath><path clip-path="url(#b)" d="M-5-4.9h422v413.7H-5z"/></svg>