<svg xmlns="http://www.w3.org/2000/svg" xmlns:xlink="http://www.w3.org/1999/xlink" viewBox="0 0 412 272"><defs><path id="a" d="M319.2 231.5H93.8c-29.8 0-53.2-23.4-53.2-52.2 0-34.1 27.7-60.1 62.2-53.8-11.5-39.6 44.1-61.9 64.6-32.3 5.2-14.6 25.8-52.7 76.1-52.7 38 0 77.4 26.1 78.7 85 25.4.1 49.2 18.4 49.2 53.8 0 28.8-23.4 52.2-52.2 52.2zm40.1-135.2C348.9 41.3 300.6.5 243.5.5c-35.1 0-67.6 15.3-89.9 41.6-37.1-9.9-76.1 11.8-86.9 48.8C28.1 102.2.5 138 .5 179.4c0 50.9 41.4 92.2 93.2 92.2h225.4c50.9 0 92.2-41.4 92.2-92.2.1-36-20.4-67.9-52-83.1z"/></defs><clipPath id="b"><use xlink:href="#a" overflow="visible"/></clipPath><path clip-path="url(#b)" d="M-4.4-4.5h420.8v281H-4.4z"/></svg>