<svg xmlns="http://www.w3.org/2000/svg" xmlns:xlink="http://www.w3.org/1999/xlink" viewBox="0 0 282 382"><defs><path id="a" d="M265.4 232.5H16.6v7.5c0 69.3 55.7 125.4 124.4 125.4S265.4 309.2 265.4 240v-7.5zm16.6 0H0v8.4C0 318.8 63.1 382 141 382s141-63.2 141-141.1v-8.4zM174.2 99.7c13.7 0 24.9 11.1 24.9 25v82.9c0 13.8-11 25-24.9 25-13.7 0-24.9-11.1-24.9-25v-82.9c0-13.9 11-25 24.9-25zm-41.5 107.9c-7-5.2-15.6-8.3-25-8.3H41.6c-9.4 0-18 3.1-25 7.8V41c0-13.8 11-24.9 24.9-24.9 13.7 0 24.9 11 24.9 24.9v158.3H83v-74.7c0-13.8 11-25 24.9-25 13.7 0 24.9 11.1 24.9 25v83zm16.6 33.2c0 23-18.6 41.6-41.6 41.6h-8.2v-16.6h8.3c13.8 0 24.9-11.2 24.9-24.9 0-13.9-11.2-24.9-24.9-24.9H41.5c-13.8 0-24.9 11.2-24.9 16.6H0v-191C0 18.6 18.4 0 41.5 0 64.4 0 83 18.6 83 41.6v49.7c6.9-5.2 15.5-8.2 24.9-8.2 13.5 0 25.6 6.5 33.1 16.6 7.5-10.1 19.6-16.6 33.2-16.6 9.3 0 18 3.1 24.9 8.3V58.1c0-22.9 18.4-41.5 41.5-41.5 22.9 0 41.5 18.7 41.5 41.5v174.4h-16.6v-16.6 16.6V58.1c0-13.7-11.1-24.9-24.9-24.9-13.8 0-24.9 11.1-24.9 24.9v149.5c0 22.9-18.4 41.5-41.5 41.5-9.4 0-18-3.1-24.9-8.3z"/></defs><clipPath id="b"><use xlink:href="#a" overflow="visible"/></clipPath><g clip-path="url(#b)"><defs><path id="c" d="M-516-862H924V683H-516z"/></defs><clipPath id="d"><use xlink:href="#c" overflow="visible"/></clipPath><path clip-path="url(#d)" d="M-5-5h292v392H-5z"/></g></svg>